<svg width="94" height="73" viewBox="0 0 94 73" fill="none" xmlns="http://www.w3.org/2000/svg">
<path d="M32.5458 50.9661L35.8418 56.0308L19.3661 66.858L16.0701 61.7933L32.5458 50.9661Z" fill="white"/>
<path d="M32.9108 59.28C29.472 59.28 26.6843 56.4787 26.6843 53.0231C26.6843 49.5674 29.472 46.7661 32.9108 46.7661C36.3495 46.7661 39.1372 49.5674 39.1372 53.0231C39.1372 56.4787 36.3495 59.28 32.9108 59.28Z" fill="url(#paint0_linear_1284_628653)"/>
<path d="M21.5878 67.7149C18.7643 67.7149 16.4754 65.4148 16.4754 62.5774C16.4754 59.7401 18.7643 57.4399 21.5878 57.4399C24.4113 57.4399 26.7002 59.7401 26.7002 62.5774C26.7002 65.4148 24.4113 67.7149 21.5878 67.7149Z" fill="url(#paint1_linear_1284_628653)"/>
<path d="M21.8385 37.9153C17.5068 37.9153 13.9953 32.9564 13.9953 26.8392C13.9953 20.7221 17.5068 15.7632 21.8385 15.7632C26.1701 15.7632 29.6816 20.7221 29.6816 26.8392C29.6816 32.9564 26.1701 37.9153 21.8385 37.9153Z" fill="url(#paint2_linear_1284_628653)"/>
<path d="M45.8098 0H60.5718C75.7081 0 87.9785 12.3306 87.9785 27.5411V27.5413C87.9785 35.6578 81.4309 42.2375 73.3541 42.2375H33.0275C24.9507 42.2375 18.403 35.6577 18.403 27.5413C18.403 12.3307 30.6734 0 45.8098 0Z" fill="url(#paint3_linear_1284_628653)"/>
<path d="M48.4025 72.3531H57.9796C67.7995 72.3531 75.7603 64.3534 75.7603 54.4852V54.4851C75.7603 49.2194 71.5123 44.9507 66.2723 44.9507H40.1096C34.8696 44.9507 30.6217 49.2194 30.6217 54.4851C30.6217 64.3533 38.5824 72.3531 48.4025 72.3531Z" fill="url(#paint4_linear_1284_628653)"/>
<path d="M32.4106 36.2968H60.471C64.2737 36.2968 67.3936 33.3677 67.3936 29.7545V24.2138C67.3936 20.6006 64.2737 17.7715 60.471 17.8934L32.4106 18.793C29.0144 18.9019 26.2921 21.7111 26.2921 25.0686V30.2173C26.2921 33.5749 29.0144 36.2968 32.4106 36.2968Z" fill="url(#paint5_linear_1284_628653)"/>
<path d="M51.4806 26.6902C51.4806 29.1032 53.5247 31.0335 56.0667 31.0012C58.6317 30.9687 60.728 28.9539 60.728 26.5014C60.728 24.0488 58.6317 22.1197 56.0667 22.1919C53.5247 22.2635 51.4806 24.2772 51.4806 26.6902Z" fill="white"/>
<path d="M32.5177 27.0777C32.5177 29.4097 34.4266 31.276 36.7999 31.2459C39.1939 31.2155 41.1499 29.2703 41.1499 26.9014C41.1499 24.5325 39.1939 22.6673 36.7999 22.7347C34.4266 22.8015 32.5177 24.7457 32.5177 27.0777Z" fill="white"/>
<path opacity="0.3" d="M43.0078 38.3744C47.181 33.447 45.3266 29.5064 50.7825 22.829C58.2894 13.6413 67.0468 14.681 69.0527 8.44953C69.6086 6.72283 69.6724 4.35282 68.1815 1.07666C79.6154 4.39088 87.9785 14.984 87.9785 27.541V27.5413C87.9785 35.6577 81.431 42.2374 73.3541 42.2374H38.2101C40.3151 41.0843 41.8535 39.7374 43.0078 38.3744Z" fill="white"/>
<path d="M84.0347 37.8382C79.7031 37.8382 76.1916 32.8792 76.1916 26.7621C76.1916 20.645 79.7031 15.686 84.0347 15.686C88.3664 15.686 91.8779 20.645 91.8779 26.7621C91.8779 32.8792 88.3664 37.8382 84.0347 37.8382Z" fill="url(#paint6_linear_1284_628653)"/>
<path d="M90.2392 31.6052C88.345 31.6052 86.8095 29.4368 86.8095 26.7618C86.8095 24.0869 88.345 21.9185 90.2392 21.9185C92.1334 21.9185 93.6689 24.0869 93.6689 26.7618C93.6689 29.4368 92.1334 31.6052 90.2392 31.6052Z" fill="url(#paint7_linear_1284_628653)"/>
<path opacity="0.4" d="M46.0438 62.5165C47.3577 56.3155 61.8917 56.4651 62.2869 52.412C62.5916 49.2874 54.247 46.1939 53.1985 45.8052C52.3017 45.4727 51.4116 45.1914 50.5303 44.9507H66.2723C71.5123 44.9507 75.7603 49.2194 75.7603 54.4851V54.4852C75.7603 64.3534 67.7996 72.3531 57.9796 72.3531H48.4025C47.4823 72.3531 46.5785 72.2829 45.6959 72.1474C46.5293 71.1093 47.0727 69.974 47.2042 68.7346C47.4955 65.9877 45.5347 64.9193 46.0438 62.5165Z" fill="url(#paint8_linear_1284_628653)"/>
<path d="M52.9551 47.3217C44.6016 47.3217 37.8297 46.4978 37.8297 45.4814C37.8297 44.465 44.6016 43.6411 52.9551 43.6411C61.3087 43.6411 68.0806 44.465 68.0806 45.4814C68.0806 46.4978 61.3087 47.3217 52.9551 47.3217Z" fill="url(#paint9_linear_1284_628653)"/>
<path d="M72.3749 50.9661L75.6709 56.0308L59.1952 66.858L55.8992 61.7933L72.3749 50.9661Z" fill="white"/>
<path d="M72.7418 59.28C69.3031 59.28 66.5154 56.4787 66.5154 53.0231C66.5154 49.5674 69.3031 46.7661 72.7418 46.7661C76.1806 46.7661 78.9683 49.5674 78.9683 53.0231C78.9683 56.4787 76.1806 59.28 72.7418 59.28Z" fill="url(#paint10_linear_1284_628653)"/>
<path d="M58.5195 60.8677H44.0979L44.6702 66.8643L58.8057 66.3886L58.5195 60.8677Z" fill="white"/>
<path d="M61.4188 67.7149C58.5953 67.7149 56.3064 65.4148 56.3064 62.5774C56.3064 59.7401 58.5953 57.4399 61.4188 57.4399C64.2423 57.4399 66.5312 59.7401 66.5312 62.5774C66.5312 65.4148 64.2423 67.7149 61.4188 67.7149Z" fill="url(#paint11_linear_1284_628653)"/>
<path d="M42.8401 60.7015C43.7141 60.2099 44.9481 59.8638 46.6848 59.9275C47.5097 59.9577 48.1911 60.5872 48.2877 61.4109L48.7905 65.6986H41.3508L41.108 64.6741C40.7376 63.1103 41.4443 61.4867 42.8401 60.7015Z" fill="url(#paint12_linear_1284_628653)"/>
<path d="M29.7034 65.8006L56.5415 65.3346C56.9109 65.3283 57.2598 65.5044 57.4754 65.8058L58.2939 66.9506C58.7015 67.5205 58.3091 68.3164 57.611 68.3359L29.2027 69.1303L29.7034 65.8006Z" fill="url(#paint13_linear_1284_628653)"/>
<path d="M0.895733 52.6752L28.5691 51.3805C29.388 51.3421 30.1662 51.7401 30.6173 52.4279L41.2993 68.7144L12.0334 69.4815C11.2301 69.5026 10.4704 69.1151 10.0132 68.4511L0.168301 54.1526C-0.250885 53.5438 0.159969 52.7095 0.895733 52.6752Z" fill="url(#paint14_linear_1284_628653)"/>
<path opacity="0.3" d="M30.6174 52.428C30.1662 51.7401 29.388 51.3421 28.5691 51.3805L27.9628 51.4088C27.9313 52.3115 27.7114 53.1497 27.209 53.848C25.6406 56.0282 22.7254 54.9409 20.7587 57.2685C18.5983 59.8253 20.9278 62.544 19.0019 64.9181C16.975 67.4168 13.3214 65.7341 9.36481 67.5095L10.0132 68.4511C10.4704 69.1151 11.2301 69.5027 12.0333 69.4816L41.2993 68.7145L30.6174 52.428Z" fill="url(#paint15_linear_1284_628653)"/>
<defs>
<linearGradient id="paint0_linear_1284_628653" x1="39.1372" y1="53.0231" x2="26.6844" y2="53.0231" gradientUnits="userSpaceOnUse">
<stop stop-color="#40447E"/>
<stop offset="0.9964" stop-color="#3C3B6B"/>
</linearGradient>
<linearGradient id="paint1_linear_1284_628653" x1="26.7002" y1="62.5774" x2="16.4754" y2="62.5774" gradientUnits="userSpaceOnUse">
<stop stop-color="#40447E"/>
<stop offset="0.9964" stop-color="#3C3B6B"/>
</linearGradient>
<linearGradient id="paint2_linear_1284_628653" x1="29.6816" y1="26.8393" x2="13.9952" y2="26.8393" gradientUnits="userSpaceOnUse">
<stop stop-color="#FFC444"/>
<stop offset="0.9964" stop-color="#F36F56"/>
</linearGradient>
<linearGradient id="paint3_linear_1284_628653" x1="87.9785" y1="21.1187" x2="18.403" y2="21.1187" gradientUnits="userSpaceOnUse">
<stop stop-color="#FCB148"/>
<stop offset="0.0521" stop-color="#FDBA46"/>
<stop offset="0.1424" stop-color="#FFC244"/>
<stop offset="0.3183" stop-color="#FFC444"/>
<stop offset="0.4849" stop-color="#FDB946"/>
<stop offset="0.7754" stop-color="#F99C4D"/>
<stop offset="0.8658" stop-color="#F8924F"/>
<stop offset="1" stop-color="#F8924F"/>
</linearGradient>
<linearGradient id="paint4_linear_1284_628653" x1="75.7602" y1="58.6519" x2="30.6217" y2="58.6519" gradientUnits="userSpaceOnUse">
<stop stop-color="#FCB148"/>
<stop offset="0.0521" stop-color="#FDBA46"/>
<stop offset="0.1424" stop-color="#FFC244"/>
<stop offset="0.3183" stop-color="#FFC444"/>
<stop offset="0.4849" stop-color="#FDB946"/>
<stop offset="0.7754" stop-color="#F99C4D"/>
<stop offset="0.8658" stop-color="#F8924F"/>
<stop offset="1" stop-color="#F8924F"/>
</linearGradient>
<linearGradient id="paint5_linear_1284_628653" x1="67.3935" y1="27.0932" x2="26.2921" y2="27.0932" gradientUnits="userSpaceOnUse">
<stop stop-color="#444B8C"/>
<stop offset="0.9964" stop-color="#26264F"/>
</linearGradient>
<linearGradient id="paint6_linear_1284_628653" x1="91.8779" y1="26.7621" x2="76.1915" y2="26.7621" gradientUnits="userSpaceOnUse">
<stop stop-color="#FFC444"/>
<stop offset="0.9964" stop-color="#F36F56"/>
</linearGradient>
<linearGradient id="paint7_linear_1284_628653" x1="93.6689" y1="26.7618" x2="86.8095" y2="26.7618" gradientUnits="userSpaceOnUse">
<stop stop-color="#FFC444"/>
<stop offset="0.9964" stop-color="#F36F56"/>
</linearGradient>
<linearGradient id="paint8_linear_1284_628653" x1="75.7602" y1="58.6519" x2="45.6959" y2="58.6519" gradientUnits="userSpaceOnUse">
<stop stop-color="#FCB148"/>
<stop offset="0.0521" stop-color="#FDBA46"/>
<stop offset="0.1424" stop-color="#FFC244"/>
<stop offset="0.3183" stop-color="#FFC444"/>
<stop offset="0.4849" stop-color="#FDB946"/>
<stop offset="0.7754" stop-color="#F99C4D"/>
<stop offset="0.8658" stop-color="#F8924F"/>
<stop offset="1" stop-color="#F8924F"/>
</linearGradient>
<linearGradient id="paint9_linear_1284_628653" x1="59.7233" y1="98.1024" x2="55.3319" y2="64.2927" gradientUnits="userSpaceOnUse">
<stop stop-color="#FCB148"/>
<stop offset="0.0521" stop-color="#FDBA46"/>
<stop offset="0.1424" stop-color="#FFC244"/>
<stop offset="0.3183" stop-color="#FFC444"/>
<stop offset="0.3975" stop-color="#FEC045"/>
<stop offset="0.7095" stop-color="#FAA34B"/>
<stop offset="0.8658" stop-color="#F8924F"/>
<stop offset="1" stop-color="#F8924F"/>
</linearGradient>
<linearGradient id="paint10_linear_1284_628653" x1="78.9682" y1="53.0231" x2="66.5154" y2="53.0231" gradientUnits="userSpaceOnUse">
<stop stop-color="#40447E"/>
<stop offset="0.9964" stop-color="#3C3B6B"/>
</linearGradient>
<linearGradient id="paint11_linear_1284_628653" x1="66.5312" y1="62.5774" x2="56.3064" y2="62.5774" gradientUnits="userSpaceOnUse">
<stop stop-color="#40447E"/>
<stop offset="0.9964" stop-color="#3C3B6B"/>
</linearGradient>
<linearGradient id="paint12_linear_1284_628653" x1="48.7906" y1="62.8093" x2="41.0104" y2="62.8093" gradientUnits="userSpaceOnUse">
<stop stop-color="#40447E"/>
<stop offset="0.9964" stop-color="#3C3B6B"/>
</linearGradient>
<linearGradient id="paint13_linear_1284_628653" x1="58.459" y1="67.2324" x2="29.2027" y2="67.2324" gradientUnits="userSpaceOnUse">
<stop stop-color="#AA80F9"/>
<stop offset="0.9964" stop-color="#6165D7"/>
</linearGradient>
<linearGradient id="paint14_linear_1284_628653" x1="41.2993" y1="60.4301" x2="0.000262274" y2="60.4301" gradientUnits="userSpaceOnUse">
<stop stop-color="#AA80F9"/>
<stop offset="0.9964" stop-color="#6165D7"/>
</linearGradient>
<linearGradient id="paint15_linear_1284_628653" x1="41.2993" y1="60.4302" x2="9.36486" y2="60.4302" gradientUnits="userSpaceOnUse">
<stop stop-color="#AA80F9"/>
<stop offset="0.9964" stop-color="#6165D7"/>
</linearGradient>
</defs>
</svg>
