<svg width="94" height="83" viewBox="0 0 94 83" fill="none" xmlns="http://www.w3.org/2000/svg">
<g filter="url(#filter0_f_1142_349660)">
<ellipse cx="39" cy="3" rx="39" ry="3" transform="matrix(-1 0 0 1 85.6687 73)" fill="black" fill-opacity="0.2"/>
</g>
<path d="M32.5458 50.9661L35.8418 56.0308L19.3661 66.858L16.0701 61.7933L32.5458 50.9661Z" fill="white"/>
<path d="M32.9105 59.28C29.4718 59.28 26.6841 56.4787 26.6841 53.0231C26.6841 49.5674 29.4718 46.7661 32.9105 46.7661C36.3493 46.7661 39.137 49.5674 39.137 53.0231C39.137 56.4787 36.3493 59.28 32.9105 59.28Z" fill="url(#paint0_linear_1142_349660)"/>
<path d="M21.5878 67.7147C18.7643 67.7147 16.4754 65.4145 16.4754 62.5772C16.4754 59.7398 18.7643 57.4397 21.5878 57.4397C24.4113 57.4397 26.7002 59.7398 26.7002 62.5772C26.7002 65.4145 24.4113 67.7147 21.5878 67.7147Z" fill="url(#paint1_linear_1142_349660)"/>
<path d="M21.8385 37.915C17.5068 37.915 13.9953 32.9561 13.9953 26.839C13.9953 20.7219 17.5068 15.7629 21.8385 15.7629C26.1701 15.7629 29.6816 20.7219 29.6816 26.839C29.6816 32.9561 26.1701 37.915 21.8385 37.915Z" fill="url(#paint2_linear_1142_349660)"/>
<path d="M45.8098 0H60.5718C75.7081 0 87.9785 12.3306 87.9785 27.5411V27.5413C87.9785 35.6578 81.4309 42.2375 73.3541 42.2375H33.0275C24.9507 42.2375 18.403 35.6577 18.403 27.5413C18.403 12.3307 30.6734 0 45.8098 0Z" fill="url(#paint3_linear_1142_349660)"/>
<path d="M48.4022 72.3529H57.9793C67.7993 72.3529 75.76 64.3532 75.76 54.485V54.4849C75.76 49.2191 71.5121 44.9504 66.2721 44.9504H40.1094C34.8694 44.9504 30.6215 49.2192 30.6215 54.4849C30.6214 64.353 38.5822 72.3529 48.4022 72.3529Z" fill="url(#paint4_linear_1142_349660)"/>
<path d="M32.4106 36.297H60.471C64.2737 36.297 67.3936 33.3679 67.3936 29.7547V24.2141C67.3936 20.6008 64.2737 17.7718 60.471 17.8937L32.4106 18.7933C29.0144 18.9022 26.2921 21.7113 26.2921 25.0689V30.2176C26.2921 33.5752 29.0144 36.297 32.4106 36.297Z" fill="url(#paint5_linear_1142_349660)"/>
<path d="M51.4806 26.6902C51.4806 29.1032 53.5247 31.0335 56.0667 31.0012C58.6317 30.9687 60.728 28.9539 60.728 26.5014C60.728 24.0488 58.6317 22.1197 56.0667 22.1919C53.5247 22.2635 51.4806 24.2772 51.4806 26.6902Z" fill="white"/>
<path d="M32.5174 27.0775C32.5174 29.4095 34.4264 31.2758 36.7997 31.2456C39.1936 31.2152 41.1497 29.2701 41.1497 26.9012C41.1497 24.5323 39.1936 22.667 36.7997 22.7344C34.4264 22.8013 32.5174 24.7455 32.5174 27.0775Z" fill="white"/>
<path opacity="0.3" d="M43.0078 38.3744C47.181 33.447 45.3266 29.5064 50.7825 22.829C58.2894 13.6413 67.0468 14.681 69.0527 8.44953C69.6086 6.72283 69.6724 4.35282 68.1815 1.07666C79.6154 4.39088 87.9785 14.984 87.9785 27.541V27.5413C87.9785 35.6577 81.431 42.2374 73.3541 42.2374H38.2101C40.3151 41.0843 41.8535 39.7374 43.0078 38.3744Z" fill="white"/>
<path d="M84.0345 37.8382C79.7028 37.8382 76.1913 32.8792 76.1913 26.7621C76.1913 20.645 79.7028 15.686 84.0345 15.686C88.3662 15.686 91.8777 20.645 91.8777 26.7621C91.8777 32.8792 88.3662 37.8382 84.0345 37.8382Z" fill="url(#paint6_linear_1142_349660)"/>
<path d="M90.239 31.6055C88.3448 31.6055 86.8092 29.437 86.8092 26.7621C86.8092 24.0872 88.3448 21.9187 90.239 21.9187C92.1332 21.9187 93.6687 24.0872 93.6687 26.7621C93.6687 29.437 92.1332 31.6055 90.239 31.6055Z" fill="url(#paint7_linear_1142_349660)"/>
<path opacity="0.4" d="M46.0436 62.5162C47.3575 56.3153 61.8915 56.4649 62.2866 52.4117C62.5913 49.2872 54.2468 46.1937 53.1982 45.805C52.3014 45.4725 51.4114 45.1911 50.5301 44.9504H66.2721C71.5121 44.9504 75.76 49.2191 75.76 54.4849V54.485C75.76 64.3532 67.7994 72.3529 57.9794 72.3529H48.4022C47.482 72.3529 46.5782 72.2826 45.6957 72.1472C46.5291 71.109 47.0725 69.9737 47.2039 68.7344C47.4952 65.9874 45.5345 64.9191 46.0436 62.5162Z" fill="url(#paint8_linear_1142_349660)"/>
<path d="M52.9546 47.3217C44.6011 47.3217 37.8292 46.4978 37.8292 45.4814C37.8292 44.465 44.6011 43.6411 52.9546 43.6411C61.3082 43.6411 68.0801 44.465 68.0801 45.4814C68.0801 46.4978 61.3082 47.3217 52.9546 47.3217Z" fill="url(#paint9_linear_1142_349660)"/>
<path d="M72.3749 50.9658L75.6709 56.0305L59.1952 66.8578L55.8992 61.7931L72.3749 50.9658Z" fill="white"/>
<path d="M72.7416 59.28C69.3028 59.28 66.5152 56.4787 66.5152 53.0231C66.5152 49.5674 69.3028 46.7661 72.7416 46.7661C76.1804 46.7661 78.968 49.5674 78.968 53.0231C78.968 56.4787 76.1804 59.28 72.7416 59.28Z" fill="url(#paint10_linear_1142_349660)"/>
<path d="M58.5193 60.8679H44.0977L44.67 66.8646L58.8054 66.3888L58.5193 60.8679Z" fill="white"/>
<path d="M61.4188 67.7147C58.5953 67.7147 56.3064 65.4145 56.3064 62.5772C56.3064 59.7398 58.5953 57.4397 61.4188 57.4397C64.2423 57.4397 66.5312 59.7398 66.5312 62.5772C66.5312 65.4145 64.2423 67.7147 61.4188 67.7147Z" fill="url(#paint11_linear_1142_349660)"/>
<path d="M42.8399 60.7015C43.7138 60.2099 44.9479 59.8638 46.6846 59.9275C47.5094 59.9577 48.1909 60.5872 48.2874 61.4109L48.7903 65.6986H41.3506L41.1078 64.6741C40.7373 63.1103 41.444 61.4867 42.8399 60.7015Z" fill="url(#paint12_linear_1142_349660)"/>
<path d="M29.7032 65.8003L56.5413 65.3344C56.9106 65.328 57.2596 65.5041 57.4751 65.8055L58.2937 66.9503C58.7012 67.5203 58.3089 68.3162 57.6107 68.3357L29.2024 69.1301L29.7032 65.8003Z" fill="url(#paint13_linear_1142_349660)"/>
<path d="M0.895489 52.6752L28.5689 51.3805C29.3877 51.3421 30.166 51.7401 30.6171 52.4279L41.2991 68.7144L12.0331 69.4815C11.2299 69.5026 10.4702 69.1151 10.013 68.4511L0.168056 54.1526C-0.251129 53.5438 0.159725 52.7095 0.895489 52.6752Z" fill="url(#paint14_linear_1142_349660)"/>
<path opacity="0.3" d="M30.6172 52.428C30.166 51.7401 29.3877 51.3421 28.5689 51.3805L27.9625 51.4088C27.9311 52.3115 27.7112 53.1497 27.2087 53.848C25.6403 56.0282 22.7252 54.9409 20.7584 57.2685C18.598 59.8253 20.9275 62.544 19.0017 64.9181C16.9747 67.4168 13.3211 65.7341 9.36457 67.5095L10.013 68.4511C10.4701 69.1151 11.2298 69.5027 12.0331 69.4816L41.2991 68.7145L30.6172 52.428Z" fill="url(#paint15_linear_1142_349660)"/>
<defs>
<filter id="filter0_f_1142_349660" x="3.6687" y="69" width="86" height="14" filterUnits="userSpaceOnUse" color-interpolation-filters="sRGB">
<feFlood flood-opacity="0" result="BackgroundImageFix"/>
<feBlend mode="normal" in="SourceGraphic" in2="BackgroundImageFix" result="shape"/>
<feGaussianBlur stdDeviation="2" result="effect1_foregroundBlur_1142_349660"/>
</filter>
<linearGradient id="paint0_linear_1142_349660" x1="39.137" y1="53.0231" x2="26.6841" y2="53.0231" gradientUnits="userSpaceOnUse">
<stop stop-color="#40447E"/>
<stop offset="0.9964" stop-color="#3C3B6B"/>
</linearGradient>
<linearGradient id="paint1_linear_1142_349660" x1="26.7002" y1="62.5772" x2="16.4754" y2="62.5772" gradientUnits="userSpaceOnUse">
<stop stop-color="#40447E"/>
<stop offset="0.9964" stop-color="#3C3B6B"/>
</linearGradient>
<linearGradient id="paint2_linear_1142_349660" x1="29.6816" y1="26.839" x2="13.9952" y2="26.839" gradientUnits="userSpaceOnUse">
<stop stop-color="#FFC444"/>
<stop offset="0.9964" stop-color="#F36F56"/>
</linearGradient>
<linearGradient id="paint3_linear_1142_349660" x1="87.9785" y1="21.1187" x2="18.403" y2="21.1187" gradientUnits="userSpaceOnUse">
<stop stop-color="#FCB148"/>
<stop offset="0.0521" stop-color="#FDBA46"/>
<stop offset="0.1424" stop-color="#FFC244"/>
<stop offset="0.3183" stop-color="#FFC444"/>
<stop offset="0.4849" stop-color="#FDB946"/>
<stop offset="0.7754" stop-color="#F99C4D"/>
<stop offset="0.8658" stop-color="#F8924F"/>
<stop offset="1" stop-color="#F8924F"/>
</linearGradient>
<linearGradient id="paint4_linear_1142_349660" x1="75.76" y1="58.6517" x2="30.6214" y2="58.6517" gradientUnits="userSpaceOnUse">
<stop stop-color="#FCB148"/>
<stop offset="0.0521" stop-color="#FDBA46"/>
<stop offset="0.1424" stop-color="#FFC244"/>
<stop offset="0.3183" stop-color="#FFC444"/>
<stop offset="0.4849" stop-color="#FDB946"/>
<stop offset="0.7754" stop-color="#F99C4D"/>
<stop offset="0.8658" stop-color="#F8924F"/>
<stop offset="1" stop-color="#F8924F"/>
</linearGradient>
<linearGradient id="paint5_linear_1142_349660" x1="67.3935" y1="27.0934" x2="26.2921" y2="27.0934" gradientUnits="userSpaceOnUse">
<stop stop-color="#444B8C"/>
<stop offset="0.9964" stop-color="#26264F"/>
</linearGradient>
<linearGradient id="paint6_linear_1142_349660" x1="91.8777" y1="26.7621" x2="76.1913" y2="26.7621" gradientUnits="userSpaceOnUse">
<stop stop-color="#FFC444"/>
<stop offset="0.9964" stop-color="#F36F56"/>
</linearGradient>
<linearGradient id="paint7_linear_1142_349660" x1="93.6686" y1="26.7621" x2="86.8092" y2="26.7621" gradientUnits="userSpaceOnUse">
<stop stop-color="#FFC444"/>
<stop offset="0.9964" stop-color="#F36F56"/>
</linearGradient>
<linearGradient id="paint8_linear_1142_349660" x1="75.76" y1="58.6517" x2="45.6957" y2="58.6517" gradientUnits="userSpaceOnUse">
<stop stop-color="#FCB148"/>
<stop offset="0.0521" stop-color="#FDBA46"/>
<stop offset="0.1424" stop-color="#FFC244"/>
<stop offset="0.3183" stop-color="#FFC444"/>
<stop offset="0.4849" stop-color="#FDB946"/>
<stop offset="0.7754" stop-color="#F99C4D"/>
<stop offset="0.8658" stop-color="#F8924F"/>
<stop offset="1" stop-color="#F8924F"/>
</linearGradient>
<linearGradient id="paint9_linear_1142_349660" x1="59.7228" y1="98.1024" x2="55.3314" y2="64.2927" gradientUnits="userSpaceOnUse">
<stop stop-color="#FCB148"/>
<stop offset="0.0521" stop-color="#FDBA46"/>
<stop offset="0.1424" stop-color="#FFC244"/>
<stop offset="0.3183" stop-color="#FFC444"/>
<stop offset="0.3975" stop-color="#FEC045"/>
<stop offset="0.7095" stop-color="#FAA34B"/>
<stop offset="0.8658" stop-color="#F8924F"/>
<stop offset="1" stop-color="#F8924F"/>
</linearGradient>
<linearGradient id="paint10_linear_1142_349660" x1="78.968" y1="53.0231" x2="66.5151" y2="53.0231" gradientUnits="userSpaceOnUse">
<stop stop-color="#40447E"/>
<stop offset="0.9964" stop-color="#3C3B6B"/>
</linearGradient>
<linearGradient id="paint11_linear_1142_349660" x1="66.5312" y1="62.5772" x2="56.3064" y2="62.5772" gradientUnits="userSpaceOnUse">
<stop stop-color="#40447E"/>
<stop offset="0.9964" stop-color="#3C3B6B"/>
</linearGradient>
<linearGradient id="paint12_linear_1142_349660" x1="48.7903" y1="62.8093" x2="41.0102" y2="62.8093" gradientUnits="userSpaceOnUse">
<stop stop-color="#40447E"/>
<stop offset="0.9964" stop-color="#3C3B6B"/>
</linearGradient>
<linearGradient id="paint13_linear_1142_349660" x1="58.4587" y1="67.2322" x2="29.2025" y2="67.2322" gradientUnits="userSpaceOnUse">
<stop stop-color="#AA80F9"/>
<stop offset="0.9964" stop-color="#6165D7"/>
</linearGradient>
<linearGradient id="paint14_linear_1142_349660" x1="41.2991" y1="60.4301" x2="1.8133e-05" y2="60.4301" gradientUnits="userSpaceOnUse">
<stop stop-color="#AA80F9"/>
<stop offset="0.9964" stop-color="#6165D7"/>
</linearGradient>
<linearGradient id="paint15_linear_1142_349660" x1="41.2991" y1="60.4302" x2="9.36462" y2="60.4302" gradientUnits="userSpaceOnUse">
<stop stop-color="#AA80F9"/>
<stop offset="0.9964" stop-color="#6165D7"/>
</linearGradient>
</defs>
</svg>
