<svg width="20" height="20" viewBox="0 0 20 20" fill="none" xmlns="http://www.w3.org/2000/svg">
<path d="M11.4533 2.19455L17.7266 6.27222C17.9483 6.41631 18.0591 6.48835 18.1394 6.58445C18.2105 6.66952 18.2639 6.76791 18.2965 6.87387C18.3333 6.99357 18.3333 7.12577 18.3333 7.39015V13.4999C18.3333 14.9 18.3333 15.6001 18.0608 16.1349C17.8211 16.6053 17.4387 16.9877 16.9683 17.2274C16.4335 17.4999 15.7334 17.4999 14.3333 17.4999H5.66663C4.26649 17.4999 3.56643 17.4999 3.03165 17.2274C2.56124 16.9877 2.17879 16.6053 1.93911 16.1349C1.66663 15.6001 1.66663 14.9 1.66663 13.4999V7.39015C1.66663 7.12577 1.66663 6.99357 1.70343 6.87387C1.73602 6.76791 1.78941 6.66952 1.8605 6.58445C1.9408 6.48835 2.05164 6.41631 2.27331 6.27222L8.54666 2.19455M11.4533 2.19455C10.9272 1.85262 10.6642 1.68166 10.3808 1.61514C10.1303 1.55635 9.8696 1.55635 9.6191 1.61514C9.33571 1.68166 9.07269 1.85262 8.54666 2.19455M11.4533 2.19455L17.4734 6.10761C17.76 6.2939 17.9033 6.38704 17.9529 6.50517C17.9963 6.6084 17.9963 6.72474 17.9529 6.82797C17.9033 6.94609 17.76 7.03924 17.4734 7.22553L11.4533 11.1386C10.9272 11.4805 10.6642 11.6515 10.3808 11.718C10.1303 11.7768 9.8696 11.7768 9.6191 11.718C9.33571 11.6515 9.07269 11.4805 8.54666 11.1386L2.52657 7.22553C2.23996 7.03924 2.09666 6.94609 2.04703 6.82797C2.00366 6.72474 2.00366 6.6084 2.04703 6.50517C2.09666 6.38704 2.23996 6.2939 2.52657 6.10761L8.54666 2.19455" stroke="#344054" stroke-width="1.67" stroke-linecap="round" stroke-linejoin="round"/>
</svg>
