<svg width="50" height="50" viewBox="0 0 50 50" fill="none" xmlns="http://www.w3.org/2000/svg">
<g clip-path="url(#clip0_1284_628796)">
<path d="M41.4581 43.6455C42.3956 43.6455 43.3331 43.0205 43.6456 42.083L49.8956 22.4997C50.104 21.7705 49.9998 21.0413 49.5831 20.5205C49.1665 19.8955 48.4373 19.583 47.7081 19.583H8.54148C7.60398 19.583 6.66648 20.208 6.35398 21.1455L0.103977 40.6247V40.833C-0.000189602 41.458 0.103977 42.083 0.520644 42.708C0.93731 43.333 1.56231 43.6455 2.29148 43.6455H41.4581Z" fill="#FDB022"/>
<path d="M8.54167 17.1873H40.2083V13.229C40.2083 12.604 39.6875 12.0832 39.0625 12.0832H18.9583C17.6042 12.0832 16.25 11.2498 15.7292 9.89567L14.6875 7.08317C14.4792 6.6665 14.0625 6.354 13.6458 6.354H1.14583C0.520833 6.354 0 6.87484 0 7.49984V33.4373L4.16667 20.3123C4.79167 18.4373 6.5625 17.1873 8.54167 17.1873Z" fill="#FDB022"/>
</g>
<defs>
<clipPath id="clip0_1284_628796">
<rect width="50" height="50" fill="white"/>
</clipPath>
</defs>
</svg>
