<svg width="29" height="29" viewBox="0 0 29 29" fill="none" xmlns="http://www.w3.org/2000/svg">
<g clip-path="url(#clip0_1162_330508)">
<path d="M9.6665 8.45833C9.6665 9.74021 10.1757 10.9696 11.0822 11.876C11.9886 12.7824 13.218 13.2917 14.4998 13.2917C15.7817 13.2917 17.0111 12.7824 17.9175 11.876C18.8239 10.9696 19.3332 9.74021 19.3332 8.45833C19.3332 7.17645 18.8239 5.94708 17.9175 5.04065C17.0111 4.13422 15.7817 3.625 14.4998 3.625C13.218 3.625 11.9886 4.13422 11.0822 5.04065C10.1757 5.94708 9.6665 7.17645 9.6665 8.45833Z" stroke="white" stroke-width="3" stroke-linecap="round" stroke-linejoin="round"/>
<path d="M7.25 25.375V22.9583C7.25 21.6765 7.75922 20.4471 8.66565 19.5407C9.57208 18.6342 10.8015 18.125 12.0833 18.125H15.1042" stroke="white" stroke-width="3" stroke-linecap="round" stroke-linejoin="round"/>
<path d="M20.543 22.9584C20.543 23.5994 20.7976 24.214 21.2508 24.6673C21.704 25.1205 22.3187 25.3751 22.9596 25.3751C23.6006 25.3751 24.2153 25.1205 24.6685 24.6673C25.1217 24.214 25.3763 23.5994 25.3763 22.9584C25.3763 22.3175 25.1217 21.7028 24.6685 21.2496C24.2153 20.7964 23.6006 20.5417 22.9596 20.5417C22.3187 20.5417 21.704 20.7964 21.2508 21.2496C20.7976 21.7028 20.543 22.3175 20.543 22.9584Z" stroke="white" stroke-width="3" stroke-linecap="round" stroke-linejoin="round"/>
<path d="M22.9595 18.7292V20.5417" stroke="white" stroke-width="3" stroke-linecap="round" stroke-linejoin="round"/>
<path d="M22.9595 25.375V27.1875" stroke="white" stroke-width="3" stroke-linecap="round" stroke-linejoin="round"/>
<path d="M26.6219 20.8438L25.0522 21.75" stroke="white" stroke-width="3" stroke-linecap="round" stroke-linejoin="round"/>
<path d="M20.8677 24.1667L19.2969 25.073" stroke="white" stroke-width="3" stroke-linecap="round" stroke-linejoin="round"/>
<path d="M19.2969 20.8438L20.8677 21.75" stroke="white" stroke-width="3" stroke-linecap="round" stroke-linejoin="round"/>
<path d="M25.0522 24.1667L26.6231 25.073" stroke="white" stroke-width="3" stroke-linecap="round" stroke-linejoin="round"/>
</g>
<defs>
<clipPath id="clip0_1162_330508">
<rect width="29" height="29" fill="white"/>
</clipPath>
</defs>
</svg>
